<svg width="20" height="20" viewBox="0 0 20 20" fill="none" xmlns="http://www.w3.org/2000/svg">
<path d="M11.8334 13.5507C9.40708 12.5234 7.47765 10.5895 6.45594 8.16076L9.28925 5.32245L4.07263 0.101666L1.43015 2.74331C0.971822 3.20426 0.609447 3.75152 0.363993 4.35342C0.118538 4.95533 -0.00512347 5.59993 0.000162583 6.24994C0.000162583 12.2899 7.7101 19.9998 13.7501 19.9998C14.4 20.0055 15.0446 19.882 15.6464 19.6365C16.2482 19.3911 16.7953 19.0285 17.2559 18.5698L19.8983 15.9274L14.6775 10.7066L11.8334 13.5507ZM16.0767 17.3915C15.7707 17.6949 15.4074 17.9343 15.0079 18.096C14.6085 18.2577 14.1809 18.3383 13.7501 18.3332C8.55593 18.3332 1.66682 11.4441 1.66682 6.24994C1.66191 5.81897 1.74262 5.39132 1.90426 4.99178C2.06591 4.59224 2.30527 4.22878 2.60847 3.92246L4.07263 2.45831L6.93677 5.32245L4.49096 7.76826L4.69512 8.27992C5.29616 9.88767 6.23575 11.3474 7.45023 12.5603C8.66471 13.7732 10.1257 14.7109 11.7342 15.3099L12.2392 15.5024L14.6775 13.0632L17.5417 15.9274L16.0767 17.3915ZM11.6667 1.66665V0C13.8761 0.00242631 15.9943 0.881171 17.5566 2.44343C19.1188 4.0057 19.9976 6.12388 20 8.33325H18.3333C18.3314 6.56577 17.6284 4.87125 16.3785 3.62145C15.1287 2.37165 13.4342 1.66864 11.6667 1.66665ZM11.6667 4.99995V3.3333C12.9924 3.33463 14.2634 3.86183 15.2008 4.79922C16.1382 5.7366 16.6654 7.00759 16.6667 8.33325H15C15 7.44921 14.6489 6.60137 14.0237 5.97625C13.3986 5.35114 12.5508 4.99995 11.6667 4.99995Z" fill="#F9F8F8"/>
</svg>
