<svg width="20" height="20" viewBox="0 0 20 20" fill="none" xmlns="http://www.w3.org/2000/svg">
<g clip-path="url(#clip0_125_250)">
<path d="M17.5 0.833588H2.5C1.83696 0.833588 1.20107 1.09698 0.732233 1.56582C0.263392 2.03466 0 2.67055 0 3.33359L0 19.1669H20V3.33359C20 2.67055 19.7366 2.03466 19.2678 1.56582C18.7989 1.09698 18.163 0.833588 17.5 0.833588ZM2.5 2.50025H17.5C17.721 2.50025 17.933 2.58805 18.0893 2.74433C18.2455 2.90061 18.3333 3.11257 18.3333 3.33359V3.88942L11.7683 10.4553C11.2987 10.923 10.6628 11.1856 10 11.1856C9.33715 11.1856 8.70131 10.923 8.23167 10.4553L1.66667 3.88942V3.33359C1.66667 3.11257 1.75446 2.90061 1.91074 2.74433C2.06702 2.58805 2.27899 2.50025 2.5 2.50025ZM1.66667 17.5003V6.25025L7.05333 11.6336C7.83552 12.4138 8.89521 12.852 10 12.852C11.1048 12.852 12.1645 12.4138 12.9467 11.6336L18.3333 6.25025V17.5003H1.66667Z" fill="#F9F8F8"/>
</g>
<defs>
<clipPath id="clip0_125_250">
<rect width="20" height="20" fill="white"/>
</clipPath>
</defs>
</svg>
