<svg width="24" height="24" viewBox="0 0 24 24" fill="none" xmlns="http://www.w3.org/2000/svg">
<mask id="mask0_1_8" style="mask-type:alpha" maskUnits="userSpaceOnUse" x="0" y="0" width="24" height="24">
<rect width="24" height="24" fill="#C4C4C4"/>
</mask>
<g mask="url(#mask0_1_8)">
<path d="M19.05 11.725C18.9833 9.80833 18.2793 8.179 16.938 6.837C15.596 5.49567 13.9667 4.8 12.05 4.75V3.25C13.2167 3.28333 14.3083 3.525 15.325 3.975C16.3417 4.425 17.2333 5.029 18 5.787C18.7667 6.54567 19.375 7.43333 19.825 8.45C20.275 9.46667 20.5167 10.5583 20.55 11.725H19.05ZM15.05 11.725C14.9833 10.925 14.6667 10.2417 14.1 9.675C13.5333 9.10833 12.85 8.8 12.05 8.75V7.25C13.2667 7.3 14.304 7.754 15.162 8.612C16.0207 9.47067 16.4833 10.5083 16.55 11.725H15.05ZM19.375 20.45C17.425 20.45 15.496 19.9873 13.588 19.062C11.6793 18.1373 9.97933 16.925 8.488 15.425C6.996 13.925 5.78333 12.225 4.85 10.325C3.91667 8.425 3.45 6.5 3.45 4.55C3.45 4.25 3.55 4 3.75 3.8C3.95 3.6 4.2 3.5 4.5 3.5H7.775C8.025 3.5 8.25 3.579 8.45 3.737C8.65 3.89567 8.76667 4.1 8.8 4.35L9.375 7.3C9.425 7.55 9.425 7.775 9.375 7.975C9.325 8.175 9.21667 8.35 9.05 8.5L6.775 10.75C7.55833 12.0833 8.496 13.2917 9.588 14.375C10.6793 15.4583 11.9167 16.4 13.3 17.2L15.525 14.95C15.6917 14.7833 15.8877 14.6667 16.113 14.6C16.3377 14.5333 16.5667 14.5167 16.8 14.55L19.575 15.125C19.825 15.175 20.0293 15.2917 20.188 15.475C20.346 15.6583 20.425 15.8833 20.425 16.15V19.4C20.425 19.7 20.325 19.95 20.125 20.15C19.925 20.35 19.675 20.45 19.375 20.45ZM6.05 9.325L7.825 7.625C7.85833 7.59167 7.87933 7.554 7.888 7.512C7.896 7.47067 7.9 7.43333 7.9 7.4L7.45 5.15C7.43333 5.1 7.40833 5.06233 7.375 5.037C7.34167 5.01233 7.3 5 7.25 5H5.125C5.09167 5 5.06233 5.01233 5.037 5.037C5.01233 5.06233 5 5.09167 5 5.125C5.05 5.80833 5.15833 6.504 5.325 7.212C5.49167 7.92067 5.73333 8.625 6.05 9.325ZM18.8 18.9C18.8333 18.9 18.8627 18.8873 18.888 18.862C18.9127 18.8373 18.925 18.8083 18.925 18.775V16.675C18.925 16.625 18.9127 16.5833 18.888 16.55C18.8627 16.5167 18.825 16.4917 18.775 16.475L16.675 16.05C16.625 16.0333 16.5873 16.0293 16.562 16.038C16.5373 16.046 16.5083 16.0667 16.475 16.1L14.7 17.875C15.3667 18.1917 16.0583 18.4377 16.775 18.613C17.4917 18.7877 18.1667 18.8833 18.8 18.9Z" fill="#FF9800"/>
</g>
</svg>
